<svg xmlns="http://www.w3.org/2000/svg" xmlns:xlink="http://www.w3.org/1999/xlink" viewBox="0,0,256,256" width="32px" height="32px"><g fill="#ffffff" fill-rule="nonzero" stroke="none" stroke-width="1" stroke-linecap="butt" stroke-linejoin="miter" stroke-miterlimit="10" stroke-dasharray="" stroke-dashoffset="0" font-family="none" font-weight="none" font-size="none" text-anchor="none" style="mix-blend-mode: normal"><g transform="scale(8,8)"><path d="M15.48633,3c0,0 -0.31241,11.94952 -0.44141,16.85352l-1.75195,-2.56055l1.12695,3.0957l-3.49219,0.50781l3.49219,0.50781l-1.34961,2.64453l1.92383,-2.01953c-0.1,3.838 -0.12305,4.78125 -0.12305,4.78125c0,0 -8.61317,-3.99989 -3.82617,-12.83789c0,0 -5.9695,-6.59062 -0.5625,-10.64062c0,0 -9.233,5.57544 -3.375,15.14844c0,0 -4.84355,-4.73072 -2.31055,-9.51172c0,0 -4.39006,6.19191 0.96094,13.00391c0,0 -1.46186,-0.89698 -2.75586,-4.33398c0,0 0.94177,10.22638 12.38477,10.35938h0.22851c11.436,-0.132 12.38477,-10.35742 12.38477,-10.35742c-1.317,3.431 -2.7832,4.33398 -2.7832,4.33398c5.35,-6.812 0.95898,-13.00391 0.95898,-13.00391c2.533,4.787 -2.31055,9.51172 -2.31055,9.51172c5.858,-9.568 -3.375,-15.14648 -3.375,-15.14648c5.406,4.056 -0.5625,10.63867 -0.5625,10.63867c4.787,8.837 -3.82617,12.83789 -3.82617,12.83789c0,0 -0.02205,-0.94325 -0.12305,-4.78125c0.24,0.251 1.92383,2.01953 1.92383,2.01953l-1.34961,-2.64453l3.49414,-0.50781l-3.49414,-0.50781l1.12695,-3.0957l-1.75195,2.56055c-0.124,-4.894 -0.43541,-16.75547 -0.44141,-16.85547z"></path></g></g></svg>